<?xml version="1.0" encoding="UTF-8" standalone="no"?>
<!-- Created with Inkscape (http://www.inkscape.org/) -->

<svg
   xmlns:dc="http://purl.org/dc/elements/1.1/"
   xmlns:cc="http://creativecommons.org/ns#"
   xmlns:rdf="http://www.w3.org/1999/02/22-rdf-syntax-ns#"
   xmlns:svg="http://www.w3.org/2000/svg"
   xmlns="http://www.w3.org/2000/svg"
   xmlns:sodipodi="http://sodipodi.sourceforge.net/DTD/sodipodi-0.dtd"
   xmlns:inkscape="http://www.inkscape.org/namespaces/inkscape"
   width="500"
   height="200"
   viewBox="0 0 132.29167 52.916666"
   version="1.1"
   id="svg8"
   inkscape:version="0.92.5 (2060ec1f9f, 2020-04-08)"
   sodipodi:docname="banner.svg">
  <defs
     id="defs2" />
  <sodipodi:namedview
     id="base"
     pagecolor="#ffffff"
     bordercolor="#666666"
     borderopacity="1.0"
     inkscape:pageopacity="0.0"
     inkscape:pageshadow="2"
     inkscape:zoom="1.4"
     inkscape:cx="151.86087"
     inkscape:cy="-6.7870792"
     inkscape:document-units="mm"
     inkscape:current-layer="layer1"
     showgrid="false"
     units="px"
     inkscape:pagecheckerboard="true"
     inkscape:window-width="2560"
     inkscape:window-height="1416"
     inkscape:window-x="0"
     inkscape:window-y="0"
     inkscape:window-maximized="0" />
  <metadata
     id="metadata5">
    <rdf:RDF>
      <cc:Work
         rdf:about="">
        <dc:format>image/svg+xml</dc:format>
        <dc:type
           rdf:resource="http://purl.org/dc/dcmitype/StillImage" />
        <dc:title />
      </cc:Work>
    </rdf:RDF>
  </metadata>
  <g
     inkscape:label="Layer 1"
     inkscape:groupmode="layer"
     id="layer1"
     transform="translate(0,-244.08334)">
    <g
       id="icon-0"
       transform="matrix(0.3282633,0,0,0.3282633,180.7623,137.70387)">
      <svg
         viewBox="0 0 151.05518 151.05518"
         height="151.05518"
         width="151.05518"
         version="1.1"
         id="svg64">
        <g
           transform="matrix(1.2466601,0,0,1.2466601,-526.04372,334.02601)"
           id="g62">
          <svg
             viewBox="0 0 97.470997 111.89273"
             height="111.89272"
             width="97.471001"
             version="1.1"
             id="svg60">
            <g
               id="g58">
              <svg
                 version="1.1"
                 x="0"
                 y="0"
                 viewBox="10.1 5.2 78.4 90"
                 enable-background="new 0 0 100 100"
                 xml:space="preserve"
                 height="111.89272"
                 width="97.471001"
                 class="icon-ib-0"
                 data-fill-palette-color="background"
                 id="ib-0" />            </g>
          </svg>
        </g>
      </svg>
      <g
         id="g63"
         transform="matrix(1.0282163,0,0,0.9938791,13.832422,3.3677909)"
         inkscape:export-xdpi="1000"
         inkscape:export-ydpi="1000">
        <polygon
           transform="matrix(1.5499133,0,0,1.5499133,-541.69784,325.96646)"
           points="68.5,22.3 88.5,28.2 68.4,59.9 "
           data-fill-palette-color="background"
           id="polygon33"
           style="clip-rule:evenodd;fill:#000000;fill-rule:evenodd;opacity:1" />
        <polygon
           transform="matrix(1.5499133,0,0,1.5499133,-541.69784,325.96646)"
           points="34.7,19.6 49.8,5.2 67.2,38.5 "
           data-fill-palette-color="background"
           id="polygon35"
           style="clip-rule:evenodd;fill:#000000;fill-rule:evenodd;opacity:1" />
        <polygon
           transform="matrix(1.5499133,0,0,1.5499133,-541.69784,325.96646)"
           points="60.8,24.5 67.8,38.3 67.8,22.3 "
           data-fill-palette-color="background"
           id="polygon37"
           style="clip-rule:evenodd;fill:#000000;fill-rule:evenodd;opacity:1" />
        <polygon
           transform="matrix(1.5499133,0,0,1.5499133,-541.69784,325.96646)"
           points="83.2,52.9 88.2,73.2 50.6,71.7 "
           data-fill-palette-color="background"
           id="polygon39"
           style="clip-rule:evenodd;fill:#000000;fill-rule:evenodd;opacity:1" />
        <polygon
           transform="matrix(1.5499133,0,0,1.5499133,-541.69784,325.96646)"
           points="77.4,47.4 69.1,60.3 82.8,52.3 "
           data-fill-palette-color="background"
           id="polygon41"
           style="clip-rule:evenodd;fill:#000000;fill-rule:evenodd;opacity:1" />
        <polygon
           transform="matrix(1.5499133,0,0,1.5499133,-541.69784,325.96646)"
           points="63.9,80.9 48.7,95.2 31.5,61.9 "
           data-fill-palette-color="background"
           id="polygon43"
           style="clip-rule:evenodd;fill:#000000;fill-rule:evenodd;opacity:1" />
        <polygon
           transform="matrix(1.5499133,0,0,1.5499133,-541.69784,325.96646)"
           points="65.8,73.1 50.5,72.2 64.2,80.2 "
           data-fill-palette-color="background"
           id="polygon45"
           style="clip-rule:evenodd;fill:#000000;fill-rule:evenodd;opacity:1" />
        <polygon
           transform="matrix(1.5499133,0,0,1.5499133,-541.69784,325.96646)"
           points="30.1,78 10.1,72 30.5,40.4 "
           data-fill-palette-color="background"
           id="polygon47"
           style="clip-rule:evenodd;fill:#000000;fill-rule:evenodd;opacity:1" />
        <polygon
           transform="matrix(1.5499133,0,0,1.5499133,-541.69784,325.96646)"
           points="37.8,75.8 30.9,62.1 30.8,78 "
           data-fill-palette-color="background"
           id="polygon49"
           style="clip-rule:evenodd;fill:#000000;fill-rule:evenodd;opacity:1" />
        <polygon
           transform="matrix(1.5499133,0,0,1.5499133,-541.69784,325.96646)"
           points="15.8,47.3 11,27 48.5,28.9 "
           data-fill-palette-color="background"
           id="polygon51"
           style="clip-rule:evenodd;fill:#000000;fill-rule:evenodd;opacity:1" />
        <polygon
           transform="matrix(1.5499133,0,0,1.5499133,-541.69784,325.96646)"
           points="21.5,52.9 30,40.1 16.1,47.9 "
           data-fill-palette-color="background"
           id="polygon53"
           style="clip-rule:evenodd;fill:#000000;fill-rule:evenodd;opacity:1" />
        <polygon
           transform="matrix(1.5499133,0,0,1.5499133,-541.69784,325.96646)"
           points="32.9,27.4 48.2,28.3 34.5,20.2 "
           data-fill-palette-color="background"
           id="polygon55"
           style="clip-rule:evenodd;fill:#000000;fill-rule:evenodd;opacity:1" />
      </g>
    </g>
    <g
       aria-label="OPOF"
       style="font-style:normal;font-variant:normal;font-weight:300;font-stretch:normal;font-size:25.40000153px;line-height:1.25;font-family:Lato;-inkscape-font-specification:'Lato, Light';font-variant-ligatures:normal;font-variant-caps:normal;font-variant-numeric:normal;font-feature-settings:normal;text-align:start;letter-spacing:0px;word-spacing:0px;writing-mode:lr-tb;text-anchor:start;opacity:1;fill:#000000;fill-opacity:1;stroke:none;stroke-width:0.26458332"
       id="text38">
      <path
         d="m 74.846957,270.65598 q 0,2.0828 -0.6223,3.7846 -0.6223,1.6891 -1.7526,2.8956 -1.1303,1.1938 -2.7178,1.8542 -1.5748,0.6477 -3.4798,0.6477 -1.905001,0 -3.479801,-0.6477 -1.5748,-0.6604 -2.7051,-1.8542 -1.1303,-1.2065 -1.7526,-2.8956 -0.6223,-1.7018 -0.6223,-3.7846 0,-2.0701 0.6223,-3.7592 0.6223,-1.7018 1.7526,-2.8956 1.1303,-1.2065 2.7051,-1.8669 1.5748,-0.6604 3.479801,-0.6604 1.905,0 3.4798,0.6604 1.5875,0.6477 2.7178,1.8542 1.1303,1.2065 1.7526,2.9083 0.6223,1.6891 0.6223,3.7592 z m -1.3462,0 q 0,-1.8796 -0.5207,-3.3782 -0.5207,-1.4986 -1.4732,-2.54 -0.9525,-1.0414 -2.286,-1.5875 -1.3335,-0.5588 -2.9464,-0.5588 -1.600201,0 -2.933701,0.5588 -1.3335,0.5461 -2.2987,1.5875 -0.9525,1.0414 -1.4859,2.54 -0.5207,1.4986 -0.5207,3.3782 0,1.8923 0.5207,3.3909 0.5334,1.4859 1.4859,2.5273 0.9652,1.0414 2.2987,1.5875 1.3335,0.5461 2.933701,0.5461 1.6129,0 2.9464,-0.5461 1.3335,-0.5461 2.286,-1.5875 0.9525,-1.0414 1.4732,-2.5273 0.5207,-1.4986 0.5207,-3.3909 z"
         style="font-style:normal;font-variant:normal;font-weight:300;font-stretch:normal;font-size:25.40000153px;font-family:Lato;-inkscape-font-specification:'Lato, Light';font-variant-ligatures:normal;font-variant-caps:normal;font-variant-numeric:normal;font-feature-settings:normal;text-align:start;writing-mode:lr-tb;text-anchor:start;opacity:1;fill:#000000;stroke-width:0.26458332"
         id="path28" />
      <path
         d="m 80.295212,272.40858 v 7.239 h -1.3081 v -17.9705 h 4.6482 q 3.1623,0 4.7625,1.3843 1.6129,1.3843 1.6129,3.9497 0,1.1811 -0.4445,2.1717 -0.4445,0.9906 -1.27,1.7145 -0.8255,0.7112 -2.0066,1.1176 -1.1811,0.3937 -2.6543,0.3937 z m 0,-1.0414 h 3.3401 q 1.1811,0 2.1209,-0.3302 0.9398,-0.3302 1.5875,-0.9144 0.6604,-0.5842 1.0033,-1.3716 0.3556,-0.8001 0.3556,-1.7399 0,-2.0701 -1.27,-3.1877 -1.27,-1.1176 -3.7973,-1.1176 h -3.3401 z"
         style="font-style:normal;font-variant:normal;font-weight:300;font-stretch:normal;font-size:25.40000153px;font-family:Lato;-inkscape-font-specification:'Lato, Light';font-variant-ligatures:normal;font-variant-caps:normal;font-variant-numeric:normal;font-feature-settings:normal;text-align:start;writing-mode:lr-tb;text-anchor:start;opacity:1;fill:#000000;stroke-width:0.26458332"
         id="path30" />
      <path
         d="m 109.63219,270.65598 q 0,2.0828 -0.6223,3.7846 -0.6223,1.6891 -1.7526,2.8956 -1.1303,1.1938 -2.7178,1.8542 -1.5748,0.6477 -3.4798,0.6477 -1.905001,0 -3.479801,-0.6477 -1.5748,-0.6604 -2.7051,-1.8542 -1.1303,-1.2065 -1.7526,-2.8956 -0.6223,-1.7018 -0.6223,-3.7846 0,-2.0701 0.6223,-3.7592 0.6223,-1.7018 1.7526,-2.8956 1.1303,-1.2065 2.7051,-1.8669 1.5748,-0.6604 3.479801,-0.6604 1.905,0 3.4798,0.6604 1.5875,0.6477 2.7178,1.8542 1.1303,1.2065 1.7526,2.9083 0.6223,1.6891 0.6223,3.7592 z m -1.3462,0 q 0,-1.8796 -0.5207,-3.3782 -0.5207,-1.4986 -1.4732,-2.54 -0.9525,-1.0414 -2.286,-1.5875 -1.3335,-0.5588 -2.9464,-0.5588 -1.600201,0 -2.933701,0.5588 -1.3335,0.5461 -2.2987,1.5875 -0.9525,1.0414 -1.4859,2.54 -0.5207,1.4986 -0.5207,3.3782 0,1.8923 0.5207,3.3909 0.5334,1.4859 1.4859,2.5273 0.9652,1.0414 2.2987,1.5875 1.3335,0.5461 2.933701,0.5461 1.6129,0 2.9464,-0.5461 1.3335,-0.5461 2.286,-1.5875 0.9525,-1.0414 1.4732,-2.5273 0.5207,-1.4986 0.5207,-3.3909 z"
         style="font-style:normal;font-variant:normal;font-weight:300;font-stretch:normal;font-size:25.40000153px;font-family:Lato;-inkscape-font-specification:'Lato, Light';font-variant-ligatures:normal;font-variant-caps:normal;font-variant-numeric:normal;font-feature-settings:normal;text-align:start;writing-mode:lr-tb;text-anchor:start;opacity:1;fill:#000000;stroke-width:0.26458332"
         id="path32" />
      <path
         d="m 124.54195,261.67708 v 1.0795 h -9.4615 v 7.5565 h 8.1915 v 1.0795 h -8.1915 v 8.255 h -1.3081 v -17.9705 z"
         style="font-style:normal;font-variant:normal;font-weight:300;font-stretch:normal;font-size:25.40000153px;font-family:Lato;-inkscape-font-specification:'Lato, Light';font-variant-ligatures:normal;font-variant-caps:normal;font-variant-numeric:normal;font-feature-settings:normal;text-align:start;writing-mode:lr-tb;text-anchor:start;opacity:1;fill:#000000;stroke-width:0.26458332"
         id="path34" />
    </g>
  </g>
</svg>
