<?xml version="1.0" encoding="UTF-8" standalone="no"?>
<!-- Created with Inkscape (http://www.inkscape.org/) -->

<svg
   xmlns:dc="http://purl.org/dc/elements/1.1/"
   xmlns:cc="http://creativecommons.org/ns#"
   xmlns:rdf="http://www.w3.org/1999/02/22-rdf-syntax-ns#"
   xmlns:svg="http://www.w3.org/2000/svg"
   xmlns="http://www.w3.org/2000/svg"
   xmlns:sodipodi="http://sodipodi.sourceforge.net/DTD/sodipodi-0.dtd"
   xmlns:inkscape="http://www.inkscape.org/namespaces/inkscape"
   width="200"
   height="200"
   viewBox="0 0 52.916666 52.916666"
   version="1.1"
   id="svg8"
   inkscape:version="0.92.5 (2060ec1f9f, 2020-04-08)"
   sodipodi:docname="logo_black.svg">
  <defs
     id="defs2" />
  <sodipodi:namedview
     id="base"
     pagecolor="#ffffff"
     bordercolor="#666666"
     borderopacity="1.0"
     inkscape:pageopacity="0.0"
     inkscape:pageshadow="2"
     inkscape:zoom="3.959798"
     inkscape:cx="35.711003"
     inkscape:cy="83.364914"
     inkscape:document-units="mm"
     inkscape:current-layer="layer1"
     showgrid="false"
     inkscape:window-width="1278"
     inkscape:window-height="1414"
     inkscape:window-x="1280"
     inkscape:window-y="0"
     inkscape:window-maximized="0"
     units="px"
     inkscape:pagecheckerboard="true" />
  <metadata
     id="metadata5">
    <rdf:RDF>
      <cc:Work
         rdf:about="">
        <dc:format>image/svg+xml</dc:format>
        <dc:type
           rdf:resource="http://purl.org/dc/dcmitype/StillImage" />
        <dc:title></dc:title>
      </cc:Work>
    </rdf:RDF>
  </metadata>
  <g
     inkscape:label="Layer 1"
     inkscape:groupmode="layer"
     id="layer1"
     transform="translate(0,-244.08334)">
    <g
       style="fill:#000000;opacity:1"
       inkscape:export-ydpi="1000"
       inkscape:export-xdpi="1000"
       transform="matrix(0.33752568,0,0,0.32625403,183.50468,138.8094)"
       id="g63">
      <polygon
         transform="matrix(1.5499133,0,0,1.5499133,-541.69784,325.96646)"
         points="68.4,59.9 68.5,22.3 88.5,28.2 "
         data-fill-palette-color="background"
         id="polygon33"
         style="clip-rule:evenodd;fill:#000000;fill-rule:evenodd;opacity:1" />
      <polygon
         transform="matrix(1.5499133,0,0,1.5499133,-541.69784,325.96646)"
         points="67.2,38.5 34.7,19.6 49.8,5.2 "
         data-fill-palette-color="background"
         id="polygon35"
         style="clip-rule:evenodd;fill:#000000;fill-rule:evenodd;opacity:1" />
      <polygon
         transform="matrix(1.5499133,0,0,1.5499133,-541.69784,325.96646)"
         points="67.8,22.3 60.8,24.5 67.8,38.3 "
         data-fill-palette-color="background"
         id="polygon37"
         style="clip-rule:evenodd;fill:#000000;fill-rule:evenodd;opacity:1" />
      <polygon
         transform="matrix(1.5499133,0,0,1.5499133,-541.69784,325.96646)"
         points="50.6,71.7 83.2,52.9 88.2,73.2 "
         data-fill-palette-color="background"
         id="polygon39"
         style="clip-rule:evenodd;fill:#000000;fill-rule:evenodd;opacity:1" />
      <polygon
         transform="matrix(1.5499133,0,0,1.5499133,-541.69784,325.96646)"
         points="82.8,52.3 77.4,47.4 69.1,60.3 "
         data-fill-palette-color="background"
         id="polygon41"
         style="clip-rule:evenodd;fill:#000000;fill-rule:evenodd;opacity:1" />
      <polygon
         transform="matrix(1.5499133,0,0,1.5499133,-541.69784,325.96646)"
         points="31.5,61.9 63.9,80.9 48.7,95.2 "
         data-fill-palette-color="background"
         id="polygon43"
         style="clip-rule:evenodd;fill:#000000;fill-rule:evenodd;opacity:1" />
      <polygon
         transform="matrix(1.5499133,0,0,1.5499133,-541.69784,325.96646)"
         points="64.2,80.2 65.8,73.1 50.5,72.2 "
         data-fill-palette-color="background"
         id="polygon45"
         style="clip-rule:evenodd;fill:#000000;fill-rule:evenodd;opacity:1" />
      <polygon
         transform="matrix(1.5499133,0,0,1.5499133,-541.69784,325.96646)"
         points="30.5,40.4 30.1,78 10.1,72 "
         data-fill-palette-color="background"
         id="polygon47"
         style="clip-rule:evenodd;fill:#000000;fill-rule:evenodd;opacity:1" />
      <polygon
         transform="matrix(1.5499133,0,0,1.5499133,-541.69784,325.96646)"
         points="30.8,78 37.8,75.8 30.9,62.1 "
         data-fill-palette-color="background"
         id="polygon49"
         style="clip-rule:evenodd;fill:#000000;fill-rule:evenodd;opacity:1" />
      <polygon
         transform="matrix(1.5499133,0,0,1.5499133,-541.69784,325.96646)"
         points="48.5,28.9 15.8,47.3 11,27 "
         data-fill-palette-color="background"
         id="polygon51"
         style="clip-rule:evenodd;fill:#000000;fill-rule:evenodd;opacity:1" />
      <polygon
         transform="matrix(1.5499133,0,0,1.5499133,-541.69784,325.96646)"
         points="16.1,47.9 21.5,52.9 30,40.1 "
         data-fill-palette-color="background"
         id="polygon53"
         style="clip-rule:evenodd;fill:#000000;fill-rule:evenodd;opacity:1" />
      <polygon
         transform="matrix(1.5499133,0,0,1.5499133,-541.69784,325.96646)"
         points="34.5,20.2 32.9,27.4 48.2,28.3 "
         data-fill-palette-color="background"
         id="polygon55"
         style="clip-rule:evenodd;fill:#000000;fill-rule:evenodd;opacity:1" />
    </g>
  </g>
</svg>
